<svg width="18" height="18" viewBox="0 0 18 18" fill="none" xmlns="http://www.w3.org/2000/svg">
<path d="M16.3333 13.8595V8.77387C16.3333 8.28407 16.3329 8.03902 16.2734 7.8111C16.2206 7.60912 16.1339 7.41798 16.0167 7.24526C15.8844 7.05035 15.7004 6.88872 15.3318 6.56618L10.9318 2.71617C10.2474 2.11733 9.90522 1.81806 9.52011 1.70417C9.18076 1.60382 8.81907 1.60382 8.47972 1.70417C8.0949 1.81797 7.7532 2.11696 7.06984 2.7149L2.66838 6.56618C2.29976 6.88872 2.11588 7.05035 1.98357 7.24526C1.86631 7.41798 1.77901 7.60912 1.72623 7.8111C1.66667 8.03903 1.66667 8.28406 1.66667 8.77387V13.8595C1.66667 14.7137 1.66667 15.1407 1.80623 15.4776C1.9923 15.9268 2.34896 16.2841 2.79818 16.4702C3.1351 16.6098 3.56221 16.6098 4.41644 16.6098C5.27066 16.6098 5.69825 16.6098 6.03516 16.4702C6.48438 16.2841 6.84095 15.9269 7.02702 15.4777C7.16658 15.1407 7.16667 14.7136 7.16667 13.8594V12.9427C7.16667 11.9302 7.98748 11.1094 9.00001 11.1094C10.0125 11.1094 10.8333 11.9302 10.8333 12.9427V13.8594C10.8333 14.7136 10.8333 15.1407 10.9729 15.4777C11.159 15.9269 11.5156 16.2841 11.9648 16.4702C12.3018 16.6098 12.7289 16.6098 13.5831 16.6098C14.4373 16.6098 14.8649 16.6098 15.2018 16.4702C15.651 16.2841 16.0076 15.9268 16.1937 15.4776C16.3332 15.1407 16.3333 14.7137 16.3333 13.8595Z" stroke="#131518" stroke-width="2" stroke-linecap="round" stroke-linejoin="round"/>
</svg>
