<svg width="21" height="18" viewBox="0 0 21 18" fill="none" xmlns="http://www.w3.org/2000/svg">
<path d="M6.32281 14.924C7.59227 15.9764 9.22232 16.609 11.0001 16.609C15.0502 16.609 18.3335 13.3258 18.3335 9.27572C18.3335 8.75409 18.279 8.24519 18.1755 7.75438M6.32281 14.924C4.70026 13.5789 3.66679 11.548 3.66679 9.27572C3.66679 5.22563 6.95004 1.94238 11.0001 1.94238C14.5286 1.94238 17.475 4.43437 18.1755 7.75438M6.32281 14.924C8.11538 14.5142 10.2479 13.66 12.3988 12.4181C14.9017 10.9731 16.9375 9.28716 18.1755 7.75438M6.32281 14.924C4.09607 15.4331 2.39396 15.2563 1.83301 14.2847C1.25522 13.284 2.01329 11.6562 3.66666 9.92562M18.1755 7.75438C19.323 6.33359 19.7849 5.04443 19.2979 4.20081C18.804 3.34535 17.4254 3.10599 15.583 3.40839" stroke="#131518" stroke-width="2" stroke-linecap="round" stroke-linejoin="round"/>
</svg>
