<svg width="22" height="24" viewBox="0 0 22 24" fill="none" xmlns="http://www.w3.org/2000/svg">
<path d="M17 7.5V6C17 2.69156 14.3084 0 11 0C7.69156 0 5 2.69156 5 6V7.5H0.5V20.25C0.5 22.3211 2.17892 24 4.25 24H17.75C19.8211 24 21.5 22.3211 21.5 20.25V7.5H17ZM8 6C8 4.34578 9.34578 3 11 3C12.6542 3 14 4.34578 14 6V7.5H8V6ZM15.5 11.625C14.8787 11.625 14.375 11.1213 14.375 10.5C14.375 9.87867 14.8787 9.375 15.5 9.375C16.1213 9.375 16.625 9.87867 16.625 10.5C16.625 11.1213 16.1213 11.625 15.5 11.625ZM6.5 11.625C5.87867 11.625 5.375 11.1213 5.375 10.5C5.375 9.87867 5.87867 9.375 6.5 9.375C7.12133 9.375 7.625 9.87867 7.625 10.5C7.625 11.1213 7.12133 11.625 6.5 11.625Z" fill="black"/>
</svg>
